/* XPM */
static char * nav_installer_xpm[] = {
"51 50 846 2",
"  	c None",
". 	c #7B7D7A",
"+ 	c #7C7E7B",
"@ 	c #7A7C79",
"# 	c #7C7C7A",
"$ 	c #7C7D77",
"% 	c #7F7C73",
"& 	c #807C70",
"* 	c #807D6C",
"= 	c #827C6C",
"- 	c #7D7D75",
"; 	c #7C7D78",
"> 	c #7C7B77",
", 	c #A39F94",
"' 	c #C4BAA1",
") 	c #BBAD8A",
"! 	c #BDAC81",
"~ 	c #BEAB80",
"{ 	c #BBA87E",
"] 	c #988968",
"^ 	c #867F6D",
"/ 	c #7E7E76",
"( 	c #7F7C75",
"_ 	c #BFB7A2",
": 	c #F6E1B4",
"< 	c #DFC384",
"[ 	c #E1C178",
"} 	c #E2C174",
"| 	c #DEBD76",
"1 	c #A48B53",
"2 	c #877C5E",
"3 	c #7B7D7C",
"4 	c #7F7D71",
"5 	c #B8AB89",
"6 	c #E2C47C",
"7 	c #C19735",
"8 	c #C39325",
"9 	c #C59322",
"0 	c #BE8F27",
"a 	c #8D6A18",
"b 	c #7D6C41",
"c 	c #827D6A",
"d 	c #797E7A",
"e 	c #7C7E7D",
"f 	c #807D6E",
"g 	c #B9AA81",
"h 	c #E7C36F",
"i 	c #C79524",
"j 	c #CA9110",
"k 	c #CA910C",
"l 	c #C28E14",
"m 	c #91690A",
"n 	c #806C3A",
"o 	c #837D67",
"p 	c #7B7D78",
"q 	c #C89625",
"r 	c #CB9211",
"s 	c #906A09",
"t 	c #816D3B",
"u 	c #847E68",
"v 	c #C79522",
"w 	c #C28F12",
"x 	c #837C69",
"y 	c #C9900F",
"z 	c #CB910C",
"A 	c #C48E12",
"B 	c #926A0A",
"C 	c #7D7D73",
"D 	c #BBAA7F",
"E 	c #C79526",
"F 	c #916909",
"G 	c #826B35",
"H 	c #7F7D70",
"I 	c #7D7C77",
"J 	c #928E82",
"K 	c #9B937E",
"L 	c #9C9076",
"M 	c #9E9073",
"N 	c #CDB786",
"O 	c #EEC979",
"P 	c #C59529",
"Q 	c #CA9012",
"R 	c #C08D17",
"S 	c #8D6301",
"T 	c #80631F",
"U 	c #877341",
"V 	c #857449",
"W 	c #7C724F",
"X 	c #79725F",
"Y 	c #C9C3B3",
"Z 	c #E5D7BA",
"` 	c #E1CEA4",
" .	c #E4CE9C",
"..	c #FFE3A1",
"+.	c #FFDD83",
"@.	c #C99728",
"#.	c #C08C12",
"$.	c #805100",
"%.	c #724C00",
"&.	c #7C5E18",
"*.	c #775F23",
"=.	c #625125",
"-.	c #5F5740",
";.	c #7D7C78",
">.	c #9A9484",
",.	c #BEAE8A",
"'.	c #DCC488",
").	c #D0AD5C",
"!.	c #D9AD4A",
"~.	c #DDAB3A",
"{.	c #C99315",
"].	c #CB9109",
"^.	c #B27C02",
"/.	c #AA7A0C",
"(.	c #A2791D",
"_.	c #7A5D17",
":.	c #746335",
"<.	c #76705A",
"[.	c #7C7D75",
"}.	c #777367",
"|.	c #978C6C",
"1.	c #C8B37A",
"2.	c #C9A652",
"3.	c #C69A2F",
"4.	c #C59119",
"5.	c #CA910E",
"6.	c #CC920A",
"7.	c #CB9008",
"8.	c #C89214",
"9.	c #B68617",
"0.	c #9A7618",
"a.	c #735C19",
"b.	c #7A6D43",
"c.	c #827D67",
"d.	c #7B7E77",
"e.	c #7A7A7A",
"f.	c #737574",
"g.	c #747673",
"h.	c #82847F",
"i.	c #6E7168",
"j.	c #818272",
"k.	c #AEA886",
"l.	c #CCB67A",
"m.	c #CBA74F",
"n.	c #C69421",
"o.	c #BF8E18",
"p.	c #997618",
"q.	c #715A16",
"r.	c #61592B",
"s.	c #6E6B4C",
"t.	c #7F7B62",
"u.	c #868370",
"v.	c #7E7E74",
"w.	c #6D6F6C",
"x.	c #343633",
"y.	c #3F4440",
"z.	c #6E736F",
"A.	c #BEC3BD",
"B.	c #BDC4BD",
"C.	c #B5BCB4",
"D.	c #AAAD98",
"E.	c #9B9267",
"F.	c #B9A25E",
"G.	c #D5AF4E",
"H.	c #C5941E",
"I.	c #C89112",
"J.	c #C1901A",
"K.	c #946E0B",
"L.	c #826E25",
"M.	c #7C7443",
"N.	c #5F6243",
"O.	c #4E533C",
"P.	c #69694F",
"Q.	c #B6B69E",
"R.	c #8D8E80",
"S.	c #7D7E76",
"T.	c #797E78",
"U.	c #717670",
"V.	c #666B65",
"W.	c #5C615B",
"X.	c #7E837D",
"Y.	c #A2A9A2",
"Z.	c #C2C9C2",
"`.	c #ADB7AE",
" +	c #929E92",
".+	c #767F6E",
"++	c #60644B",
"@+	c #787145",
"#+	c #A18A46",
"$+	c #CBA84C",
"%+	c #C99B2C",
"&+	c #B68818",
"*+	c #987517",
"=+	c #948037",
"-+	c #908C5C",
";+	c #8A9170",
">+	c #717D65",
",+	c #5C6A53",
"'+	c #636C51",
")+	c #8C9079",
"!+	c #606453",
"~+	c #595B4E",
"{+	c #6A6C5F",
"]+	c #787A6F",
"^+	c #6C6E6B",
"/+	c #686A67",
"(+	c #6E736D",
"_+	c #848983",
":+	c #80877F",
"<+	c #7C837C",
"[+	c #9DA49D",
"}+	c #BCC3BC",
"|+	c #BDC7BF",
"1+	c #98A299",
"2+	c #768276",
"3+	c #586659",
"4+	c #3F4D3E",
"5+	c #354231",
"6+	c #3C4228",
"7+	c #615C32",
"8+	c #B5A363",
"9+	c #B4943F",
"0+	c #A17D25",
"a+	c #886D26",
"b+	c #A99862",
"c+	c #ABA37E",
"d+	c #9A9D82",
"e+	c #889279",
"f+	c #79856D",
"g+	c #6E7860",
"h+	c #5F6951",
"i+	c #3E4734",
"j+	c #414838",
"k+	c #595D4E",
"l+	c #6A6C5E",
"m+	c #7E7F6D",
"n+	c #888979",
"o+	c #3B403A",
"p+	c #272C26",
"q+	c #4B524B",
"r+	c #A5AFA6",
"s+	c #C8D2C7",
"t+	c #C9D3CA",
"u+	c #B5C1B7",
"v+	c #95A197",
"w+	c #6C796F",
"x+	c #3D4B3E",
"y+	c #3A4839",
"z+	c #344535",
"A+	c #314134",
"B+	c #304035",
"C+	c #334134",
"D+	c #3F4835",
"E+	c #58593A",
"F+	c #736534",
"G+	c #97804A",
"H+	c #BA9F70",
"I+	c #B59870",
"J+	c #AC8E6A",
"K+	c #A18A6A",
"L+	c #979073",
"M+	c #8C9077",
"N+	c #828C74",
"O+	c #798672",
"P+	c #6C7967",
"Q+	c #626F5E",
"R+	c #576453",
"S+	c #424B36",
"T+	c #868767",
"U+	c #B1B092",
"V+	c #7F8174",
"W+	c #797D7C",
"X+	c #696E68",
"Y+	c #6D726C",
"Z+	c #8B928A",
"`+	c #B7C3B7",
" @	c #B9C5B9",
".@	c #A1ADA1",
"+@	c #7D897D",
"@@	c #5F6D60",
"#@	c #4A584B",
"$@	c #364737",
"%@	c #364639",
"&@	c #35453B",
"*@	c #354441",
"=@	c #323F45",
"-@	c #324148",
";@	c #37444C",
">@	c #434945",
",@	c #766C53",
"'@	c #9C8462",
")@	c #B48C69",
"!@	c #B4825D",
"~@	c #AE744F",
"{@	c #9C6A45",
"]@	c #906F4C",
"^@	c #887B5B",
"/@	c #7E8269",
"(@	c #73806C",
"_@	c #6E7D6A",
":@	c #6B7C6A",
"<@	c #657666",
"[@	c #57634F",
"}@	c #636647",
"|@	c #636244",
"1@	c #414336",
"2@	c #656762",
"3@	c #808581",
"4@	c #828781",
"5@	c #838A82",
"6@	c #ACB8AC",
"7@	c #AEBAAE",
"8@	c #94A094",
"9@	c #6B776B",
"0@	c #536154",
"a@	c #435346",
"b@	c #404E41",
"c@	c #3C4942",
"d@	c #364147",
"e@	c #323A4D",
"f@	c #2E3456",
"g@	c #30385D",
"h@	c #353B5D",
"i@	c #39384A",
"j@	c #725E55",
"k@	c #A0745B",
"l@	c #BB7956",
"m@	c #CC7A52",
"n@	c #C36A40",
"o@	c #AA572D",
"p@	c #915028",
"q@	c #875F3B",
"r@	c #786F50",
"s@	c #6C765D",
"t@	c #6F7E69",
"u@	c #738673",
"v@	c #758676",
"w@	c #586456",
"x@	c #505747",
"y@	c #4B4F40",
"z@	c #3E4138",
"A@	c #757A76",
"B@	c #5B605A",
"C@	c #363D35",
"D@	c #8F9B8F",
"E@	c #B1BDB1",
"F@	c #AEB8AF",
"G@	c #8B958C",
"H@	c #6E7C6F",
"I@	c #59695E",
"J@	c #4E5B54",
"K@	c #404B4F",
"L@	c #31394E",
"M@	c #242A4E",
"N@	c #222656",
"O@	c #282B60",
"P@	c #2C2F5C",
"Q@	c #29233D",
"R@	c #583A38",
"S@	c #8B5741",
"T@	c #C27450",
"U@	c #E4845A",
"V@	c #D9774A",
"W@	c #B4572B",
"X@	c #8C4117",
"Y@	c #7B4B25",
"Z@	c #6D5E41",
"`@	c #6A6F58",
" #	c #7A8D7A",
".#	c #7F9080",
"+#	c #425041",
"@#	c #545E53",
"##	c #757B6F",
"$#	c #808274",
"%#	c #7F7F73",
"&#	c #505551",
"*#	c #535A53",
"=#	c #879188",
"-#	c #BEC8BF",
";#	c #D1DBD2",
">#	c #D0D7D0",
",#	c #BEC8C0",
"'#	c #A7B3A9",
")#	c #86938C",
"!#	c #566467",
"~#	c #384454",
"{#	c #23294D",
"]#	c #161A4A",
"^#	c #1A1B51",
"/#	c #1B1D50",
"(#	c #1B1D46",
"_#	c #20162E",
":#	c #472621",
"<#	c #753F27",
"[#	c #A65C39",
"}#	c #C57047",
"|#	c #BF663A",
"1#	c #A15227",
"2#	c #854720",
"3#	c #805938",
"4#	c #7E745B",
"5#	c #868E79",
"6#	c #7E8D7A",
"7#	c #748773",
"8#	c #697A68",
"9#	c #576554",
"0#	c #404B3B",
"a#	c #505541",
"b#	c #AFAC8D",
"c#	c #959073",
"d#	c #7F7D6E",
"e#	c #7D7E78",
"f#	c #717370",
"g#	c #535854",
"h#	c #616861",
"i#	c #858F86",
"j#	c #BCC6BD",
"k#	c #D8DFD8",
"l#	c #E0E7E0",
"m#	c #DEE5DE",
"n#	c #C8D2CA",
"o#	c #B0BCB8",
"p#	c #8D9B9C",
"q#	c #6D7987",
"r#	c #4D5673",
"s#	c #32375F",
"t#	c #282B58",
"u#	c #1D204B",
"v#	c #15183B",
"w#	c #191023",
"x#	c #351915",
"y#	c #552813",
"z#	c #773C1C",
"A#	c #965632",
"B#	c #9E5E38",
"C#	c #97613D",
"D#	c #926E4C",
"E#	c #8A765B",
"F#	c #817F6A",
"G#	c #7D8877",
"H#	c #758471",
"I#	c #697C68",
"J#	c #5F705D",
"K#	c #5C6B58",
"L#	c #495644",
"M#	c #4A523B",
"N#	c #797653",
"O#	c #96926D",
"P#	c #97937A",
"Q#	c #727471",
"R#	c #5E635D",
"S#	c #3E453E",
"T#	c #C1CDC1",
"U#	c #D7E1D8",
"V#	c #E2E9E2",
"W#	c #E4EBE4",
"X#	c #E3E8E4",
"Y#	c #DFE6DF",
"Z#	c #D8E2DA",
"`#	c #CFDBD1",
" $	c #C5D2C9",
".$	c #ADBCB7",
"+$	c #8C9A9D",
"@$	c #64707C",
"#$	c #4C546B",
"$$	c #333855",
"%$	c #1E223D",
"&$	c #161324",
"*$	c #281A17",
"=$	c #3B2414",
"-$	c #50321A",
";$	c #715236",
">$	c #826A4E",
",$	c #8B7B61",
"'$	c #97927C",
")$	c #888D77",
"!$	c #76826E",
"~$	c #677866",
"{$	c #657664",
"]$	c #5F725F",
"^$	c #5B6C5A",
"/$	c #586957",
"($	c #515E4A",
"_$	c #373D23",
":$	c #7E7F5F",
"<$	c #A19D78",
"[$	c #8F8A6C",
"}$	c #828073",
"|$	c #535552",
"1$	c #444943",
"2$	c #828C83",
"3$	c #B2BEB2",
"4$	c #CDD9CD",
"5$	c #D6E2D6",
"6$	c #E0EAE1",
"7$	c #E3EAE3",
"8$	c #D8E2D9",
"9$	c #D0DCD0",
"0$	c #C7D5C6",
"a$	c #BFD0C0",
"b$	c #B6C6BB",
"c$	c #A7B6B1",
"d$	c #919FA2",
"e$	c #6A747E",
"f$	c #434959",
"g$	c #2B2E37",
"h$	c #34302D",
"i$	c #4A4436",
"j$	c #6D6552",
"k$	c #8E8872",
"l$	c #93957F",
"m$	c #89917C",
"n$	c #6E7F6D",
"o$	c #6A7D6A",
"p$	c #657865",
"q$	c #637663",
"r$	c #5B6C5C",
"s$	c #596A58",
"t$	c #5F6E59",
"u$	c #616D57",
"v$	c #464A31",
"w$	c #6B6744",
"x$	c #BFBA9C",
"y$	c #8D8B7C",
"z$	c #6A6C69",
"A$	c #565B55",
"B$	c #495048",
"C$	c #687269",
"D$	c #919D91",
"E$	c #BFCBBF",
"F$	c #D2DED2",
"G$	c #D9E3DA",
"H$	c #DBE5DC",
"I$	c #D5DFD6",
"J$	c #CFDBCF",
"K$	c #C1D2C0",
"L$	c #BCCFBC",
"M$	c #B5C7B9",
"N$	c #ABBCB2",
"O$	c #99A8A1",
"P$	c #798382",
"Q$	c #424B48",
"R$	c #6A7169",
"S$	c #818779",
"T$	c #818876",
"U$	c #87907B",
"V$	c #83907C",
"W$	c #7D8C79",
"X$	c #738471",
"Y$	c #6D806C",
"Z$	c #657864",
"`$	c #637662",
" %	c #617461",
".%	c #607161",
"+%	c #606E5D",
"@%	c #54614D",
"#%	c #44503C",
"$%	c #333E2D",
"%%	c #222919",
"&%	c #474934",
"*%	c #979684",
"=%	c #838379",
"-%	c #6A6F6B",
";%	c #3D443D",
">%	c #4E554D",
",%	c #646E65",
"'%	c #7F8980",
")%	c #BAC6BA",
"!%	c #CBD7CB",
"~%	c #CFD9CE",
"{%	c #CCD8CC",
"]%	c #C6D4C5",
"^%	c #BFD0BE",
"/%	c #B9CCB9",
"(%	c #B3C5B5",
"_%	c #9BAB9E",
":%	c #7B887E",
"<%	c #566258",
"[%	c #798579",
"}%	c #8E9A8C",
"|%	c #8C9A89",
"1%	c #7E8F7D",
"2%	c #788977",
"3%	c #748774",
"4%	c #738672",
"5%	c #6E816D",
"6%	c #687B67",
"7%	c #627562",
"8%	c #5D6E5C",
"9%	c #536454",
"0%	c #4A5746",
"a%	c #5B634C",
"b%	c #5F644E",
"c%	c #393F31",
"d%	c #343A30",
"e%	c #4F5146",
"f%	c #7C7E73",
"g%	c #585D57",
"h%	c #1D241D",
"i%	c #4A564C",
"j%	c #808E81",
"k%	c #B0BCB2",
"l%	c #BEC8BD",
"m%	c #C4D0C2",
"n%	c #C4D2C3",
"o%	c #BDCEBE",
"p%	c #B8CABA",
"q%	c #B1C3B3",
"r%	c #A7B8A8",
"s%	c #6D7B6C",
"t%	c #455346",
"u%	c #616F62",
"v%	c #576556",
"w%	c #647263",
"x%	c #879586",
"y%	c #7C8D7D",
"z%	c #6D806D",
"A%	c #687967",
"B%	c #627361",
"C%	c #505E4F",
"D%	c #333F35",
"E%	c #1C2214",
"F%	c #747357",
"G%	c #B2B195",
"H%	c #5D625C",
"I%	c #303C32",
"J%	c #374538",
"K%	c #647064",
"L%	c #899587",
"M%	c #A5B3A4",
"N%	c #B2C0B1",
"O%	c #B4C2B3",
"P%	c #ABBCAC",
"Q%	c #97A898",
"R%	c #5E6C5D",
"S%	c #4D5B4C",
"T%	c #546253",
"U%	c #6F7D6E",
"V%	c #5A6859",
"W%	c #4F5D4E",
"X%	c #546255",
"Y%	c #768477",
"Z%	c #7A8B7B",
"`%	c #738472",
" &	c #2F3D2E",
".&	c #2C3A2D",
"+&	c #374138",
"@&	c #585E50",
"#&	c #7D7B64",
"$&	c #8E8973",
"%&	c #737874",
"&&	c #2C332C",
"*&	c #2D392F",
"=&	c #4E5C4F",
"-&	c #526051",
";&	c #6D7B6A",
">&	c #7F8D7E",
",&	c #96A495",
"'&	c #89978A",
")&	c #647265",
"!&	c #455344",
"~&	c #4B594A",
"{&	c #728371",
"]&	c #596A5A",
"^&	c #4A564A",
"/&	c #616D61",
"(&	c #707C70",
"_&	c #758374",
":&	c #475848",
"<&	c #3F4B3F",
"[&	c #384438",
"}&	c #2C3A2B",
"|&	c #2D3B2E",
"1&	c #3D473E",
"2&	c #6C7469",
"3&	c #7C7C72",
"4&	c #2D342D",
"5&	c #404A41",
"6&	c #6B796A",
"7&	c #60715F",
"8&	c #4A5B49",
"9&	c #3F503E",
"0&	c #4C5D4B",
"a&	c #6C7D6D",
"b&	c #364435",
"c&	c #475546",
"d&	c #556656",
"e&	c #647563",
"f&	c #515D51",
"g&	c #5D695D",
"h&	c #6A766A",
"i&	c #414F40",
"j&	c #283627",
"k&	c #253125",
"l&	c #394539",
"m&	c #3C483A",
"n&	c #3D493D",
"o&	c #434D44",
"p&	c #6D746D",
"q&	c #737872",
"r&	c #2D342C",
"s&	c #465246",
"t&	c #7A8B79",
"u&	c #6A7D69",
"v&	c #617460",
"w&	c #5A6D59",
"x&	c #435643",
"y&	c #3D4E3E",
"z&	c #495748",
"A&	c #5E6F5F",
"B&	c #506151",
"C&	c #4B5749",
"D&	c #455145",
"E&	c #324031",
"F&	c #344233",
"G&	c #374536",
"H&	c #3B4739",
"I&	c #404C40",
"J&	c #475148",
"K&	c #6E756E",
"L&	c #2B322A",
"M&	c #434D42",
"N&	c #7C8A79",
"O&	c #81927F",
"P&	c #7C8F7B",
"Q&	c #677A66",
"R&	c #566956",
"S&	c #546553",
"T&	c #5E6F5D",
"U&	c #637462",
"V&	c #6D7E6C",
"W&	c #7F907E",
"X&	c #637464",
"Y&	c #526353",
"Z&	c #4C5A4B",
"`&	c #3D493B",
" *	c #384637",
".*	c #394738",
"+*	c #3B493A",
"@*	c #434F43",
"#*	c #4F564F",
"$*	c #70756F",
"%*	c #777974",
"&*	c #424740",
"**	c #454D42",
"=*	c #5F6B5D",
"-*	c #72806F",
";*	c #7B8C7A",
">*	c #7C8F7C",
",*	c #6E816E",
"'*	c #687B68",
")*	c #677A67",
"!*	c #697C69",
"~*	c #6F826E",
"{*	c #839682",
"]*	c #667765",
"^*	c #516252",
"/*	c #4A5648",
"(*	c #455143",
"_*	c #404E3F",
":*	c #3F4D3C",
"<*	c #3E4C3D",
"[*	c #3D4B3C",
"}*	c #3E4A3E",
"|*	c #4B554C",
"1*	c #5F665F",
"2*	c #747975",
"3*	c #50554E",
"4*	c #272F24",
"5*	c #404A3F",
"6*	c #657163",
"7*	c #7E8C7D",
"8*	c #839482",
"9*	c #7D907D",
"0*	c #788B78",
"a*	c #738974",
"b*	c #6F8570",
"c*	c #718772",
"d*	c #849A85",
"e*	c #576856",
"f*	c #4A5849",
"g*	c #485446",
"h*	c #414D41",
"i*	c #303A31",
"j*	c #4A514A",
"k*	c #7A7F7B",
"l*	c #70726F",
"m*	c #666863",
"n*	c #6A6F69",
"o*	c #484F47",
"p*	c #687667",
"q*	c #748573",
"r*	c #7C8D7B",
"s*	c #7F927E",
"t*	c #7B917C",
"u*	c #789078",
"v*	c #7A927A",
"w*	c #899F8A",
"x*	c #6B7E6B",
"y*	c #596C59",
"z*	c #586B58",
"A*	c #536653",
"B*	c #526351",
"C*	c #515F50",
"D*	c #697069",
"E*	c #6C716D",
"F*	c #5A5C57",
"G*	c #4B524A",
"H*	c #697368",
"I*	c #576357",
"J*	c #778A76",
"K*	c #7D937E",
"L*	c #829A82",
"M*	c #8EA48F",
"N*	c #5B6E5B",
"O*	c #4B5C4C",
"P*	c #5F6B5F",
"Q*	c #5C635B",
"R*	c #60655F",
"S*	c #424942",
"T*	c #384239",
"U*	c #4E5A4E",
"V*	c #5F7060",
"W*	c #839984",
"X*	c #90A691",
"Y*	c #5A685B",
"Z*	c #4B574D",
"`*	c #454F46",
" =	c #717871",
".=	c #6F7470",
"+=	c #676E67",
"@=	c #2A362C",
"#=	c #687969",
"$=	c #849583",
"%=	c #556153",
"&=	c #69736A",
"*=	c #797B78",
"==	c #5E655E",
"-=	c #626C63",
";=	c #5F665E",
">=	c #697068",
",=	c #646B64",
"'=	c #737A73",
")=	c #373C36",
"!=	c #61635E",
"~=	c #787D79",
". . . . . . . . . . . . . . . . . . . . + . . . + . . . . @ . . . . . . . . . . . . . . . . . . . . . ",
". . . . . . . . . . . . . . . . . . . . . . . . . . . . . . . . . . . . . . . . . . . . . . . . . . . ",
". . . . . . . . . . . . . . . . . . . . . . . . . . . . @ . . . . . . . . . . . . . . . . . . . . . . ",
". . . . . . . . . . . . . . . . . . . . . # $ % & * = = & - ; . . . . . . . . . . . . . . . . . . . . ",
". . . . . . . . . . . . . . . . . . . . # > , ' ) ! ~ { ] ^ / ; . + . . . . . . . . . . . . . . . . . ",
". . . . . . . . . . . . . . . . . . . . ; ( _ : < [ } | 1 2 & $ . . . . . . . . . . . . . . . . . . . ",
". . . # # . . . . . . 3 3 . . @ . . . . $ 4 5 6 7 8 9 0 a b c - . . . d d . . . . . . . . 3 3 . . . . ",
". . . # # . . . . . . 3 e . . . . . . . $ f g h i j k l m n o - . . . d d . . . . . . . . 3 3 . . . . ",
". . . . . . . . . p p . . . . . . . @ . $ f g h q r k l s t u - . . . . . . . p p . . . . . . d d . . ",
". . . . . . . . . p p . . . . . . . . @ $ f g h v j k w s n x - . . . . . . . p p . . . . . . d d . . ",
". . . # # . . . . . . . . p p . . . . . $ f g h v y z A B n x - + . . . . . . . . . . . . . . 3 3 . . ",
". . . # # . . . . . . @ . p p + . ; $ C & x D h E j z l F G 2 x H - $ . . . . . . . . . . . . 3 3 . . ",
". . . . . . . # # . . @ . . . . ; I J K L M N O P Q k R S T U V W X 4 ; . . . . . . . . . # # . . . . ",
". . . . . . . # # . . . . . . . ; I Y Z `  ...+.@.j k #.$.%.&.*.=.-.4 $ . . . . . . . . . # # . . . . ",
". . . + . . . . . # # . . . . 3 # ;.>.,.'.).!.~.{.z ].y ^./.(._.:.<.[.p d . . . . # # . . # # . d . . ",
". . . . . + . . . # # . . . + 3 . ; }.|.1.2.3.4.5.6.7.z 8.9.0.a.b.c.C d.p . . . . # # . . # . . d . . ",
". . . . . . . . + . . . . e.f.g.d h.i.j.k.l.m.n.5.].].5.o.p.q.r.s.t.u.v.d.p . + + . . . . . . . . 3 3 ",
". . . . . . . + + . . . . w.x.y.z.A.B.C.D.E.F.G.H.I.I.J.K.L.M.N.O.P.Q.R.S.$ p p p . . . . . . . . 3 3 ",
". . . @ . . . . . . . T.U.V.W.X.Y.Z.`. +.+++@+#+$+%+&+*+=+-+;+>+,+'+)+!+~+{+]+[.$ p . 3 3 . . . . . . ",
". . . . . . . . ^+/+(+_+:+<+[+}+|+1+2+3+4+5+6+7+8+9+0+a+b+c+d+e+f+g+h+i+j+k+l+m+n+$ . 3 3 . . . . . . ",
". . . . . + . T.o+p+q+r+s+t+u+v+w+x+y+z+A+B+C+D+E+F+G+H+I+J+K+L+M+N+O+P+Q+R+S+T+U+V+. W+W+. . . . . . ",
". . . . . . . T.X+Y+Z+`+ @.@+@@@#@$@%@&@*@=@-@;@>@,@'@)@!@~@{@]@^@/@(@_@:@<@[@}@|@1@2@d W+. . . . . . ",
". . . . . . . . 3@4@5@6@7@8@9@0@a@b@c@d@e@f@g@h@i@j@k@l@m@n@o@p@q@r@s@t@u@v@w@x@y@z@2@. + . . . . . . ",
". . . . . @ . . A@B@C@D@E@F@G@H@I@J@K@L@M@N@O@P@Q@R@S@T@U@V@W@X@Y@Z@`@t@ #.#+#@###$#%#$ p . . . . . . ",
". . . . . . . W+&#*#=#-#;#>#,#'#)#!#~#{#]#^#/#(#_#:#<#[#}#|#1#2#3#4#5#6#7#8#9#0#a#b#c#d#e#; # . . . . ",
". . . . . . f#g#h#i#j#k#l#m#k#n#o#p#q#r#s#t#u#v#w#x#y#z#A#B#C#D#E#F#G#H#I#J#K#L#M#N#O#P#d#- ; . . . . ",
". . . # # Q#R#S#G@T#U#V#W#X#Y#Z#`# $.$+$@$#$$$%$&$*$=$-$;$>$,$'$)$!$~${$]$^$/$/$($_$:$<$[$}$$ p . + . ",
". . . # # |$1$2$3$4$5$6$W#7$Y#8$9$0$a$b$c$d$e$f$g$h$i$j$k$l$m$H#n$o$p$q$]$r$s$^$t$u$v$w$x$y$$ ; . . . ",
". . . # # z$A$B$C$D$E$F$G$H$G$I$J$0$K$L$M$N$O$P$Q$R$S$T$U$V$W$X$Y$I#Z$`$ %.%+%@%#%$%%%&%*%=%; # # . . ",
". . . # # . -%;%>%,%'%.@)%!%J$~%{%]%^%L$/%(%_%:%<%[%}%|%1%2%3%4%5%6%`$7%8%9%0%a%b%c%d%e%f%$ ; # # . . ",
". . . + . . . d T.g%h%i%j%k%l%T#m%n%o%p%q%r%s%t%u%v%w%x%y%2%3%u@z%A%B%.%C%D%E%F%G%V+d.p p p . . . . . ",
". . . . . . . . . Q#H%I%J%<%K%L%M%N%O%P%Q%R%S%T%U%V%W%X%Y%Z%`%z%A%r$+# &.&+&@&#&$&v.p . . . . . . . . ",
". . . . . . . . . . %&&&*&=&-&R%;&>&,&'&)&!&~&8%{&]&~&^&/&(&_&]&:&<&[&}&|&1&2&f%3&; . . . . . . . . . ",
". . . . . . . . . . %&4&5&6&7&8&9&0&a&R%b&c&d&e&u@r$W%f&^&g&h&i&j&k&l&m&n&o&p&. . . . . . . . . . . . ",
". . . 3 3 . . . . . q&r&s&t&4%u&v&w&x&y&z&9%8%A%t&A&B&-&C&D&n&E&F&G&H&<&I&J&K&. # . + . . . . . . . . ",
". . . 3 3 . . . @ . q&L&M&N&O&P&4%Q&R&S&/$T&U&V&W&X&Y&-&Z&D&`& *.*.*+*@*J&#*$*. # . . . . . . . . . . ",
". . . . . . . . . . %*&***=*-*;*>*u@,*o$'*)*!*~*{*]*S&^*W%/*(*_*:*<*[*}*|*1*2*. . # # p p . . d d . . ",
". . . . . . . . . . . T.3*4*5*6*7*8*9*0*a*4%b*c*d*!*e*9%^*W%~&z&f*g*h*i*j*k*k*. . # # p p . . d d . . ",
". . . . . . . . . d d . l*m*n*o*5*p*q*r*s*t*u*v*w*x*y*z*A*B*B&C*s&|*D*V.E*. . . . . @ . . . . . . . . ",
". . . . . . . . . d d 3 3 # . F*G*H*I*V%A%J*K*L*M*,*N*N*d&O*z&P*Q*R*T.. . . . . . . @ . . . . . . . . ",
". . . . . . . . . . . . . . . . T.T.S*T*U*V*u@W*X*,*^$r$Y*Z*`* =T.. + . . . . . . . . . . . . . . . . ",
". . . . . . . . . . . . . . . . . . Q#.=+=@=b@#=$=6&%=^&&= =U.*=. . @ . . . @ . . . . . . . . . . . . ",
". . . . . . . . . . . . . + . . . 3 . . %&*#==-=B$;=>=,='=d . . . . . . . . . . . . . . . . . . . . . ",
". . . . . . . . . . . . . . . . . 3 3 . . k*d X+)=!=p d d . . . . . . . . . . . . . . . . . . . . . . ",
". . . . . . . . . . . . . . . . . d d . . . . . . + + . + . . . . . . . . . . . . . . . . . . . . . . ",
". . . . . . . . . . . + . . . . . ~=k*. . . . . . . . . . . . . . . . . . . . . . . . . . . . . . . . ",
". . . . . . . . . . . . . . . . . . . . . . . . . # # # # . . p p p p . . . . . . . . . . . . . . . . ",
". . . . . . . . . . . . . . . . . . . . . . . . . # # # # . . p p p p . . . . . . . . . . . . . . . . ",
". . . . . . . . . . . . . . . . . . . . . . . . . . . . . . . . . . . . . . . . . . . . . . . . . . . ",
". . . . . . . . . . . . . . . . . . . . . . . . . . . . . . . . . . . . . . . . . . . . . . . . . . . "};
