/* XPM */
static char * nav_configuration_xpm[] = {
"45 50 795 2",
"  	c None",
". 	c #7B7D7A",
"+ 	c #7B7D78",
"@ 	c #7A7C79",
"# 	c #7C7E7B",
"$ 	c #646663",
"% 	c #454744",
"& 	c #434542",
"* 	c #444643",
"= 	c #545452",
"- 	c #616360",
"; 	c #696B68",
"> 	c #727471",
", 	c #787A77",
"' 	c #4A4A48",
") 	c #060604",
"! 	c #000000",
"~ 	c #020200",
"{ 	c #252422",
"] 	c #454543",
"^ 	c #585858",
"/ 	c #696969",
"( 	c #777777",
"_ 	c #7C7C7C",
": 	c #797B78",
"< 	c #656764",
"[ 	c #414340",
"} 	c #60605E",
"| 	c #6A6965",
"1 	c #706F6B",
"2 	c #5D5C58",
"3 	c #3E3D3B",
"4 	c #40403E",
"5 	c #6A6A6A",
"6 	c #797977",
"7 	c #7B7D7C",
"8 	c #7A7C7B",
"9 	c #797B7A",
"0 	c #787A79",
"a 	c #565855",
"b 	c #191B18",
"c 	c #474843",
"d 	c #9D9C98",
"e 	c #BBB8B3",
"f 	c #CCC9C4",
"g 	c #A8A59E",
"h 	c #7A7974",
"i 	c #363531",
"j 	c #282723",
"k 	c #5A5A58",
"l 	c #71716F",
"m 	c #747673",
"n 	c #6F716E",
"o 	c #717370",
"p 	c #737572",
"q 	c #777978",
"r 	c #676966",
"s 	c #4C4E4B",
"t 	c #444442",
"u 	c #42413D",
"v 	c #888580",
"w 	c #CAC7C0",
"x 	c #BDBAB3",
"y 	c #A9A69F",
"z 	c #878681",
"A 	c #62615D",
"B 	c #3A3B36",
"C 	c #474745",
"D 	c #70726F",
"E 	c #767875",
"F 	c #4B4D4A",
"G 	c #313330",
"H 	c #555754",
"I 	c #777976",
"J 	c #6D6F6C",
"K 	c #494947",
"L 	c #171715",
"M 	c #5B5A56",
"N 	c #A6A5A0",
"O 	c #BFBCB7",
"P 	c #CDCAC3",
"Q 	c #C2BFBA",
"R 	c #8B8A85",
"S 	c #252523",
"T 	c #292927",
"U 	c #686A67",
"V 	c #707070",
"W 	c #626262",
"X 	c #444444",
"Y 	c #313131",
"Z 	c #393939",
"` 	c #484848",
" .	c #5A5A5A",
"..	c #616161",
"+.	c #4C4C4A",
"@.	c #403F3D",
"#.	c #3F3E3A",
"$.	c #9C9895",
"%.	c #DBD8D3",
"&.	c #CBC8C1",
"*.	c #92918C",
"=.	c #272725",
"-.	c #262626",
";.	c #60625F",
">.	c #4F4F4F",
",.	c #292929",
"'.	c #ACACAC",
").	c #7D7D7D",
"!.	c #474747",
"~.	c #515151",
"{.	c #6B6D6A",
"].	c #757774",
"^.	c #5C5C5C",
"/.	c #656565",
"(.	c #6A6C69",
"_.	c #6E706D",
":.	c #3A3A38",
"<.	c #181816",
"[.	c #91908E",
"}.	c #E4E3DF",
"|.	c #D1D0CB",
"1.	c #969590",
"2.	c #282826",
"3.	c #212121",
"4.	c #545653",
"5.	c #6E6E6C",
"6.	c #5B5B5B",
"7.	c #505050",
"8.	c #4E4E4E",
"9.	c #E1E1E1",
"0.	c #A6A6A6",
"a.	c #6D6D6D",
"b.	c #363636",
"c.	c #3D3D3D",
"d.	c #383A37",
"e.	c #202020",
"f.	c #3B3B3B",
"g.	c #535552",
"h.	c #494949",
"i.	c #2F2F2F",
"j.	c #A1A09E",
"k.	c #ECEBE7",
"l.	c #D4D3CE",
"m.	c #292826",
"n.	c #1A1A18",
"o.	c #535353",
"p.	c #1B1B1B",
"q.	c #737373",
"r.	c #D1D1D1",
"s.	c #D3D3D3",
"t.	c #CDCDCD",
"u.	c #B2B2B2",
"v.	c #272727",
"w.	c #2B2B2B",
"x.	c #5E605D",
"y.	c #4D4D4B",
"z.	c #434341",
"A.	c #4A4A4A",
"B.	c #464646",
"C.	c #545454",
"D.	c #BAB9B7",
"E.	c #D2CFC8",
"F.	c #9C9C94",
"G.	c #4A4945",
"H.	c #31312F",
"I.	c #3C3C3A",
"J.	c #060606",
"K.	c #797979",
"L.	c #F0F0F0",
"M.	c #D5D5D5",
"N.	c #B5B5B5",
"O.	c #888888",
"P.	c #3A3C39",
"Q.	c #3C3E3B",
"R.	c #1D1D1B",
"S.	c #7E7E7C",
"T.	c #A8A7A5",
"U.	c #686765",
"V.	c #393836",
"W.	c #141412",
"X.	c #0A0A08",
"Y.	c #0A0A0A",
"Z.	c #5E5E5E",
"`.	c #B6B6B4",
" +	c #D8D7D5",
".+	c #E8E7E2",
"++	c #A7A49B",
"@+	c #7F7C77",
"#+	c #595854",
"$+	c #353533",
"%+	c #DDDDDD",
"&+	c #C4C4C4",
"*+	c #999999",
"=+	c #404040",
"-+	c #484A47",
";+	c #666865",
">+	c #797E7A",
",+	c #767877",
"'+	c #41413F",
")+	c #82817D",
"!+	c #B3AFAC",
"~+	c #96928F",
"{+	c #7B7774",
"]+	c #61605C",
"^+	c #6A6967",
"/+	c #A2A19F",
"(+	c #D7D6D4",
"_+	c #D9D6D1",
":+	c #C3BFB6",
"<+	c #B0ADA4",
"[+	c #9E9B94",
"}+	c #696863",
"|+	c #242422",
"1+	c #6B6B6B",
"2+	c #4B4B4B",
"3+	c #545253",
"4+	c #6A6869",
"5+	c #727272",
"6+	c #767676",
"7+	c #575757",
"8+	c #383838",
"9+	c #575956",
"0+	c #757776",
"a+	c #373634",
"b+	c #787773",
"c+	c #ADA9A6",
"d+	c #C3BEBA",
"e+	c #CBC8C3",
"f+	c #D8D5D0",
"g+	c #EEEDE9",
"h+	c #F1EDEA",
"i+	c #D1CEC9",
"j+	c #B8B5AE",
"k+	c #B9B5AC",
"l+	c #B8B5AC",
"m+	c #79766F",
"n+	c #13120E",
"o+	c #343432",
"p+	c #757573",
"q+	c #565656",
"r+	c #111111",
"s+	c #615F60",
"t+	c #E2E0E1",
"u+	c #0E0E0E",
"v+	c #434343",
"w+	c #585A57",
"x+	c #4D4C4A",
"y+	c #676360",
"z+	c #9C9994",
"A+	c #BAB5AF",
"B+	c #C2BFB8",
"C+	c #D9D6CF",
"D+	c #DAD7D2",
"E+	c #DCD9D4",
"F+	c #D2CFCA",
"G+	c #C6C3BA",
"H+	c #BDB9B0",
"I+	c #928F88",
"J+	c #56534E",
"K+	c #403F3B",
"L+	c #6E6E6E",
"M+	c #4C4C4C",
"N+	c #525051",
"O+	c #7B797A",
"P+	c #7B7B7B",
"Q+	c #353535",
"R+	c #2D2D2B",
"S+	c #2E2D2B",
"T+	c #76726F",
"U+	c #9D9A95",
"V+	c #AAA7A0",
"W+	c #B3B0A9",
"X+	c #B9B6AF",
"Y+	c #B8B5B0",
"Z+	c #C1BEB9",
"`+	c #CAC7C2",
" @	c #D4D1CC",
".@	c #D4D1CA",
"+@	c #C5C2BB",
"@@	c #ADAAA3",
"#@	c #928F8A",
"$@	c #55524D",
"%@	c #0D0C0A",
"&@	c #6D6D6B",
"*@	c #303030",
"=@	c #555354",
"-@	c #C1BFC0",
";@	c #131313",
">@	c #646464",
",@	c #4B4B49",
"'@	c #52514F",
")@	c #54534F",
"!@	c #494844",
"~@	c #474642",
"{@	c #484743",
"]@	c #504F4B",
"^@	c #B8B7B3",
"/@	c #E2E1DC",
"(@	c #DFDED9",
"_@	c #CFCCC7",
":@	c #B3B0AB",
"<@	c #585451",
"[@	c #2C2C2A",
"}@	c #2C2C2C",
"|@	c #3E3E3E",
"1@	c #787878",
"2@	c #4F4D4E",
"3@	c #413F40",
"4@	c #666666",
"5@	c #5F615E",
"6@	c #535351",
"7@	c #2F2F2D",
"8@	c #191917",
"9@	c #12110F",
"0@	c #121210",
"a@	c #171614",
"b@	c #343331",
"c@	c #8D8C8A",
"d@	c #CDCCC8",
"e@	c #EAE9E5",
"f@	c #E6E5E1",
"g@	c #B4B1AC",
"h@	c #94908D",
"i@	c #43423E",
"j@	c #040203",
"k@	c #151515",
"l@	c #858585",
"m@	c #7A7A7A",
"n@	c #343233",
"o@	c #606060",
"p@	c #676767",
"q@	c #727473",
"r@	c #6D6F6E",
"s@	c #484846",
"t@	c #474946",
"u@	c #424240",
"v@	c #6C6C6A",
"w@	c #CFCECC",
"x@	c #E8E7E3",
"y@	c #D1D0CC",
"z@	c #B8B4B1",
"A@	c #52514D",
"B@	c #0E0C0D",
"C@	c #717171",
"D@	c #3B3D3C",
"E@	c #454746",
"F@	c #6B6B69",
"G@	c #747675",
"H@	c #676765",
"I@	c #666863",
"J@	c #656762",
"K@	c #666664",
"L@	c #323230",
"M@	c #92918F",
"N@	c #C7C6C4",
"O@	c #ECEBE9",
"P@	c #C7C6C2",
"Q@	c #5C5B59",
"R@	c #636363",
"S@	c #1C1C1C",
"T@	c #515352",
"U@	c #7C7C7A",
"V@	c #7B7B79",
"W@	c #6F716C",
"X@	c #6E706B",
"Y@	c #6C6E6B",
"Z@	c #5A5C59",
"`@	c #333333",
" #	c #6F6F6D",
".#	c #DADAD8",
"+#	c #939391",
"@#	c #242424",
"##	c #5F5F5F",
"$#	c #848484",
"%#	c #1A1819",
"&#	c #080808",
"*#	c #1A1A1A",
"=#	c #757772",
"-#	c #747671",
";#	c #72746F",
">#	c #323232",
",#	c #8A8A88",
"'#	c #6F6F6F",
")#	c #686868",
"!#	c #3F3F3F",
"~#	c #242223",
"{#	c #22211F",
"]#	c #262425",
"^#	c #4D4D4D",
"/#	c #777775",
"(#	c #1B1D1C",
"_#	c #525453",
":#	c #9F9F9F",
"<#	c #50504E",
"[#	c #595856",
"}#	c #131210",
"|#	c #5C605F",
"1#	c #404443",
"2#	c #414342",
"3#	c #3F4140",
"4#	c #3D3F3E",
"5#	c #3A3C3B",
"6#	c #373737",
"7#	c #4C4E4D",
"8#	c #565857",
"9#	c #5F5F5D",
"0#	c #3B3B39",
"a#	c #6E6D6B",
"b#	c #6C6865",
"c#	c #5A5955",
"d#	c #3E3D39",
"e#	c #383836",
"f#	c #787C7B",
"g#	c #3A3F42",
"h#	c #000205",
"i#	c #000104",
"j#	c #000005",
"k#	c #000002",
"l#	c #3D3D3F",
"m#	c #9D9D9D",
"n#	c #010000",
"o#	c #424041",
"p#	c #767674",
"q#	c #787876",
"r#	c #7C7B79",
"s#	c #81807E",
"t#	c #817D7A",
"u#	c #4A4643",
"v#	c #070604",
"w#	c #30302E",
"x#	c #626260",
"y#	c #5D6160",
"z#	c #373C3F",
"A#	c #3B444B",
"B#	c #454F58",
"C#	c #525C65",
"D#	c #5A646D",
"E#	c #555D68",
"F#	c #3C434D",
"G#	c #0F1219",
"H#	c #1B1C20",
"I#	c #48484A",
"J#	c #292728",
"K#	c #312F30",
"L#	c #3E3E3C",
"M#	c #939192",
"N#	c #9E9D9B",
"O#	c #A29E9B",
"P#	c #7B7873",
"Q#	c #4E4A47",
"R#	c #3A3935",
"S#	c #7A7C77",
"T#	c #6E7271",
"U#	c #44494C",
"V#	c #0B141B",
"W#	c #455360",
"X#	c #8697A7",
"Y#	c #99AABA",
"Z#	c #A4B5C5",
"`#	c #9BACBE",
" $	c #727F8F",
".$	c #222A35",
"+$	c #03080E",
"@$	c #222222",
"#$	c #151513",
"$$	c #999997",
"%$	c #B4B4B2",
"&$	c #C0BFBB",
"*$	c #BCBBB6",
"=$	c #A9A6A1",
"-$	c #8E8B86",
";$	c #4D4C48",
">$	c #100F0D",
",$	c #343434",
"'$	c #636564",
")$	c #353A3D",
"!$	c #374047",
"~$	c #4C5864",
"{$	c #7F8F9F",
"]$	c #AFC2D3",
"^$	c #A7B9CD",
"/$	c #9EB3C8",
"($	c #9CB1C6",
"_$	c #8597AB",
":$	c #546171",
"<$	c #2A333C",
"[$	c #05090C",
"}$	c #252525",
"|$	c #393937",
"1$	c #595957",
"2$	c #AEAEAC",
"3$	c #D9D8D4",
"4$	c #83827D",
"5$	c #363533",
"6$	c #636562",
"7$	c #6A6C6B",
"8$	c #4B4F52",
"9$	c #1F282F",
"0$	c #45515D",
"a$	c #8797A6",
"b$	c #A8B8C7",
"c$	c #C2D2E2",
"d$	c #A6B7C9",
"e$	c #96A8BC",
"f$	c #9BB1C8",
"g$	c #90A6BD",
"h$	c #748599",
"i$	c #424E5C",
"j$	c #080D13",
"k$	c #282A29",
"l$	c #595B5A",
"m$	c #8F8F8D",
"n$	c #C9C9C7",
"o$	c #E6E7E2",
"p$	c #E2E1DD",
"q$	c #D2D1CC",
"r$	c #B1B1A9",
"s$	c #8C8C84",
"t$	c #494843",
"u$	c #1E1D19",
"v$	c #333331",
"w$	c #696A6C",
"x$	c #34383B",
"y$	c #32393F",
"z$	c #5A646E",
"A$	c #8696A5",
"B$	c #B6C7D7",
"C$	c #ACBCCB",
"D$	c #9BABBB",
"E$	c #8697A9",
"F$	c #7B90A5",
"G$	c #93A9C1",
"H$	c #91A7BF",
"I$	c #71859D",
"J$	c #404D5E",
"K$	c #2A2B2D",
"L$	c #5E605F",
"M$	c #525252",
"N$	c #727270",
"O$	c #D3D3D1",
"P$	c #EBEAE8",
"Q$	c #E7E6E2",
"R$	c #CECEC6",
"S$	c #84817C",
"T$	c #585550",
"U$	c #2C2B27",
"V$	c #4D5154",
"W$	c #4C5660",
"X$	c #8F9DAA",
"Y$	c #ACBCCC",
"Z$	c #BBCCDC",
"`$	c #9CADBD",
" %	c #7C8D9F",
".%	c #788DA2",
"+%	c #7A90A8",
"@%	c #89A1BB",
"#%	c #869EB8",
"$%	c #6C8098",
"%%	c #3F4C5D",
"&%	c #070C12",
"*%	c #2C2C2E",
"=%	c #2E2E2E",
"-%	c #979797",
";%	c #C8C8C8",
">%	c #EEEEEC",
",%	c #E3E2DE",
"'%	c #CFCEC9",
")%	c #ACA9A4",
"!%	c #807D78",
"~%	c #41403C",
"{%	c #232321",
"]%	c #454545",
"^%	c #707271",
"/%	c #373B3C",
"(%	c #292E34",
"_%	c #666F78",
":%	c #98A4B2",
"<%	c #C0D0DF",
"[%	c #B3C4D4",
"}%	c #93A4B6",
"|%	c #798B9F",
"1%	c #63788D",
"2%	c #8096AE",
"3%	c #91A9C3",
"4%	c #859DB7",
"5%	c #788EA6",
"6%	c #67798D",
"7%	c #3E4A58",
"8%	c #2D2D2D",
"9%	c #E8E8E8",
"0%	c #BFBBB8",
"a%	c #979692",
"b%	c #71706C",
"c%	c #484745",
"d%	c #424242",
"e%	c #626463",
"f%	c #484C4D",
"g%	c #41464A",
"h%	c #545D66",
"i%	c #9BA5B1",
"j%	c #BBC7D5",
"k%	c #B8C8D7",
"l%	c #9EAFC1",
"m%	c #7A8CA0",
"n%	c #73879F",
"o%	c #7389A1",
"p%	c #839BB5",
"q%	c #8BA3BD",
"r%	c #778FA9",
"s%	c #60758A",
"t%	c #465363",
"u%	c #313A43",
"v%	c #23272A",
"w%	c #404241",
"x%	c #656766",
"y%	c #2E302D",
"z%	c #939393",
"A%	c #C1C0BE",
"B%	c #E4E3E1",
"C%	c #B7B6B4",
"D%	c #8E8D8B",
"E%	c #737270",
"F%	c #2A2A2A",
"G%	c #3B3F40",
"H%	c #161B1F",
"I%	c #656E75",
"J%	c #A8B0BB",
"K%	c #CEDAE6",
"L%	c #C7D5E2",
"M%	c #97A7B7",
"N%	c #7C8EA2",
"O%	c #667A92",
"P%	c #7D95AF",
"Q%	c #96B0C9",
"R%	c #879FBB",
"S%	c #778FA7",
"T%	c #687C94",
"U%	c #495969",
"V%	c #16202A",
"W%	c #21262A",
"X%	c #4C5051",
"Y%	c #7B7A78",
"Z%	c #DAD9D7",
"`%	c #A4A3A1",
" &	c #767573",
".&	c #5E5E5C",
"+&	c #656563",
"@&	c #8F8F8F",
"#&	c #3A3A3A",
"$&	c #414546",
"%&	c #43484C",
"&&	c #505962",
"*&	c #98A2AC",
"=&	c #C7D1DB",
"-&	c #C4D0DC",
";&	c #AABACA",
">&	c #8091A5",
",&	c #778BA4",
"'&	c #7B93AD",
")&	c #839DB8",
"!&	c #8AA4BF",
"~&	c #7890AA",
"{&	c #425262",
"]&	c #2D3741",
"^&	c #23282C",
"/&	c #383A39",
"(&	c #5B5D5C",
"_&	c #8C8B89",
":&	c #949391",
"<&	c #81827D",
"[&	c #858681",
"}&	c #A3A3A1",
"|&	c #101010",
"1&	c #535A62",
"2&	c #A3ADB9",
"3&	c #CDD9E7",
"4&	c #DBE5EF",
"5&	c #ACB8C4",
"6&	c #8796A9",
"7&	c #6A7C92",
"8&	c #7A8FAA",
"9&	c #9BB5D0",
"0&	c #768EA8",
"a&	c #506070",
"b&	c #19232D",
"c&	c #0E1317",
"d&	c #3C3D3F",
"e&	c #626461",
"f&	c #6C6C6C",
"g&	c #090909",
"h&	c #BCBBB9",
"i&	c #B0B0AE",
"j&	c #AAAAA8",
"k&	c #ACACAA",
"l&	c #7C7E7D",
"m&	c #5D646C",
"n&	c #B0BCCA",
"o&	c #D1DFEC",
"p&	c #D8E0EB",
"q&	c #A4AEBA",
"r&	c #8897AA",
"s&	c #8498B0",
"t&	c #859DB9",
"u&	c #88A2BD",
"v&	c #7690A9",
"w&	c #657B92",
"x&	c #27313B",
"y&	c #2C3031",
"z&	c #797B76",
"A&	c #555555",
"B&	c #2B2D2A",
"C&	c #4D4F4C",
"D&	c #606972",
"E&	c #B6C3D3",
"F&	c #CEDEEE",
"G&	c #CFDBE9",
"H&	c #9CA8B6",
"I&	c #8B9CAE",
"J&	c #9BAFC7",
"K&	c #8DA5BF",
"L&	c #647A91",
"M&	c #516272",
"N&	c #212B35",
"O&	c #090E14",
"P&	c #2A2E2F",
"Q&	c #474948",
"R&	c #4D5560",
"S&	c #8FA0B2",
"T&	c #A7BCD1",
"U&	c #B8C9DB",
"V&	c #ACBDCF",
"W&	c #A2B4C8",
"X&	c #99AEC3",
"Y&	c #8399B1",
"Z&	c #6B8095",
"`&	c #435362",
" *	c #1F2933",
".*	c #1D2228",
"+*	c #25262A",
"@*	c #444645",
"#*	c #595B58",
"$*	c #525451",
"%*	c #40423F",
"&*	c #101115",
"**	c #3B424C",
"=*	c #627282",
"-*	c #8297AC",
";*	c #9DB2C7",
">*	c #A9BED3",
",*	c #A4B9CE",
"'*	c #8FA4B9",
")*	c #728498",
"!*	c #050A10",
"~*	c #242529",
"{*	c #3F3F41",
"]*	c #434446",
"^*	c #2D3037",
"/*	c #26303A",
"(*	c #5C6C7C",
"_*	c #8193A9",
":*	c #8298AF",
"<*	c #7E94AB",
"[*	c #77899D",
"}*	c #4E5B6B",
"|*	c #1B252F",
"1*	c #1B2024",
"2*	c #212526",
"3*	c #414143",
"4*	c #393A3E",
"5*	c #192026",
"6*	c #3C4650",
"7*	c #516171",
"8*	c #506173",
"9*	c #4E5F71",
"0*	c #343D46",
"a*	c #11161A",
"b*	c #242829",
"c*	c #3E403F",
"d*	c #5A5C5B",
"e*	c #404445",
"f*	c #111820",
"g*	c #101920",
"h*	c #12171D",
"i*	c #1F2227",
"j*	c #343537",
"k*	c #5D5F5E",
"l*	c #3C3E3D",
"m*	c #25292A",
"n*	c #252628",
"o*	c #242527",
"p*	c #353537",
"q*	c #5B5D5A",
"r*	c #7A7A78",
"s*	c #5F6160",
"t*	c #5C5E5D",
". . . . . . . . . . . . . . . . . + + . . . . . . . . . . . . . . . . . . . . . . . . . . ",
". . . . . . . . . @ . . . . . . . + + . . . . @ . . . . . . . . . # . . . . . . # . . . . ",
". . . . . . . . . # . . . . # . . . . . . . . . . . . . . . . . . . . . . . . . . . . . . ",
". . . . . . . . . . . $ % & * = - ; > , # . . . . . . . . . . . . . . . . . . . . . . . . ",
". . . . . . . . @ . . ' ) ! ~ { ] ^ / ( _ @ . . . . . . . . . . . . . . . . . @ . . . . . ",
". . . . . . . @ : < [ ' } | 1 | 2 3 4 5 6 @ . . . . . . . . . . . . . . @ @ @ @ @ . . . . ",
". . . . . 7 8 9 0 a b c d e f g h i j k l , @ . . . . . . . . . . . : m n o p , : : @ . . ",
". . . . . 7 8 9 q r s t u v w x y z A B C D : @ . . . . . . . . . . E F G & H ; p I : . . ",
". . . . # . @ : I m J K L M N O P Q R S T U I 8 8 . . . . . @ . . V W X Y Z `  ./ p I # . ",
". . . . . @ @ : , m D ..+.@.#.$.%.&.*.=.-.;.o 8 8 . . . . . . . @ >.,._ '.). .!.~.{.].. . ",
". . . . @ E $ ^./.(.n _.r :.<.[.}.|.1.2.3.4.(.: @ . . . . + # 5.6.7.8.'.9.0.a.b.c.< p . . ",
". . . @ : _.d.e.f.g.J D {.h.i.j.k.l.1.m.n.t ;.: @ . . . . + . o.p.q.r.s.t.u.).v.w.x.D . . ",
". . . : ;.y.+.' z.X A.h.B.C.5 D.k.E.F.G.H.I.^ , : . . . . . @ A.J.K.L.M.N.O.^.G P.;.n . . ",
". . . , Q.R.S.T.U.V.W.X.Y.Z.`. +.+&.++@+#+$+7.E : @ . . . @ @ A.J.V %+&+*+=+3.-+x.;+D . . ",
". >+. ,+'+{ )+!+~+{+]+A ^+/+(+_+E.:+<+[+}+|+z.m , @ : . . 1+2+3+4+5+6+/ 7+f.8+9+< {.> . . ",
". >+. 0+y.a+b+c+d+e+e+f+.+g+h+i+j+k+k+l+m+n+o+p+I @ @ . @ q+r+s+t+( ! ! u+v+..$ ; n ].. . ",
". 7 7 m w+z.x+y+z+A+B+P C+D+E+F+&.w G+H+I+J+K+$+6., : L+M+N+O+P+a.~.Q+b.c.a < (._.p I . . ",
". 8 7 ].$ ~.R+S+T+U+V+W+X+Y+Y+Z+`+ @.@+@@@#@$@%@'+&@J Z.*@=@-@O.;@b.W >@/.r {.n p I : . . ",
". . . I J - ,@4 '@)@!@~@G.!@{@]@| ^@/@(@_@:@v <@3 [@}@|@L+1@Z.2@3@o.4@U {.J D p E : @ . . ",
". . . , m _.5@6@z.7@8@9@0@0@0@a@b@c@d@e@f@F+g@h@i@j@k@f.l@m@,.n@o@p@/ J D > ].I : @ @ . . ",
". . . @ I q@r@< x.q+M+h.s@s@t@K s@u@v@w@g+x@y@z@A@B@o.C@A.D@E@C./.F@J o ].I , : : . . . . ",
". . . @ , q G@o _.a.5 / H@I@J@K@ .L@4 M@N@O@P@M@Q@8+R@4@e.S@T@/.1+J > ]., : @ @ @ . . . . ",
". . . U@V@: I E m > D n W@W@X@Y@r Z@-+`@ #.#+#@###$#!.%#&#*#M+..L+> E , @ @ # . . . . . . ",
". . . U@V@@ : , I I E =#-#-#;#o n (.9+>#M+,#'#=+ .)#!#~#{#]#`@^#5 > , : @ . . . . . . . @ ",
". . . # . . . @ @ @ : : : : , /#p+n r ##v+(#_#:#<#L '+[#]@a+}#i.>@n : @ . . . . . . . . . ",
". @ . . . . . @ @ @ @ @ @ |#1#2#3#4#5#6#!#7#8#9#s@0#k a#b#c#d#a+e#6@_.m @ . . . . . . . . ",
". . . . . . . . . . . . f#g#h#i#i#j#j#k#l#m#o@n#o#p#q#r#s#t#{+u#v#w#x#V V@. + . . . . . . ",
". . . . . . . . . . . y#z#A#B#C#D#E#F#G#H#I#|@J#K#L#5.M#N#O#U+P#Q#R#7@>.5 m S#. . . . . . ",
". . . . . + + + + I T#U#V#W#X#Y#Z#`# $.$+$k#@$M+-.#$} $$%$&$*$=$-$;$>$,$C.; E : . 7 7 >+>+",
". . . . . + + + . '$)$!$~${$]$^$/$($_$:$<$[$}$o.X e#|$1$2$(+3$e+g@4$A@5$T ,@6$m @ 7 7 >+>+",
". . . . . . . /#7$8$9$0$a$b$c$d$e$f$g$h$i$j$k$l$Z@o.w.`@m$n$o$p$q$r$s$t$u$v$,@< p : . . . ",
". # . . . . . w$x$y$z$A$B$C$D$E$F$G$H$I$J$j$K$L$;.o@M$!.=+N$O$P$Q$R$r$S$T$U$|+C ;.].@ . . ",
". . # . . I '$V$y$W$X$Y$Z$`$ %.%+%@%#%$%%%&%*%W 4@(.r ^ =%!.-%;%>%,%'%)%!%~%{%7@]%>@C@@ . ",
". . . . . ^%/%(%_%:%<%[%}%|%1%2%3%4%5%6%7%&%8%>@1+J J )# .!.Y m@9%O@,%0%a%b%c%S@3.d%o@. . ",
". + + . e%f%g%h%i%j%k%l%m%n%o%p%q%r%s%t%u%v%w%x%{.D o n {.4.y%C.z%A%B%C%D%E%k !.6#F%^#. . ",
". + + 8 G%H%I%J%K%L%M%N%O%P%Q%R%S%T%U%V%W%X%L$r J p ].m D ; x.=+*#Y%Z%`% &.&+&@&/ k@#&. . ",
". + @ $&%&&&*&=&-&;&>&,&'&)&!&~&1%{&]&^&/&(&;+{.> E I I m D Y@M$>#o.m@_&:&<&[&}&l |&8+. . ",
". + . i#1&2&3&4&5&6&7&8&9&!&0&T%a&b&c&d&= e&(.n m , : : , ].D f&4@`@g&E%h&i&j&k& #r+8+. . ",
". . l&j#m&n&o&p&q&r&s&t&u&v&w&{&x&W%y&8.##U _.p ].@ : S#z&I m D {.M$Z A.A&7.^#8.=+B&C&. . ",
". . 7 j#D&E&F&G&H&I&J&K&r%L&M&N&O&P&Q&Z./ J > I : @ @ + S#: , m D f&W =%g&g&g&g&3.t@- . . ",
". . 7 j#R&S&T&U&V&W&X&Y&Z&`& *.*+*@*#*< J o ]., @ . . . . @ : I m o ; $*[ %*%*%*s x.J . . ",
". . 7 &***=*-*;*>*,*'*)*a&x&!*~*{*8#;+J D ]., @ : @ . . . . . : , m D Y@; r r U {.n m . . ",
". . 7 ]*^*/*(*_*:*<*[*}*|*1*2*3*^ e&{.D m I : @ . . . . . . . @ : I ].> D _._._.o p I . . ",
". . # >@4*5*6*7*8*9*}*0*a*b*c*A&p@Y@n m I : @ . . . . . . . . @ @ : , I ].].m ].E I : . . ",
". # . > d*e*^&f*g*f*h*i*j*Q&Z@>@f&n p I : @ @ . . . . . . . . . . @ @ @ : : : , @ @ : . . ",
". . . , {.k*l*m*b*n*o*p*8.q*r 1+V p E , @ @ . . . . . . . . . . . . @ # . . @ . . # . . . ",
". + + r*/#o (.e%s*k*t*o@>@U J D m I : @ @ . # . . . . . . . . . . . . . . . . . . . . . . ",
". + + U@U@. . . . . . _ ).. . . . . # @ . @ . . . # # . . . . . . . . . . . . . . . . . # ",
". U@U@. . . . . . . . . . . . . . . . . . . . . . . . . . . . . . . . . . . . . . . . . . ",
". U@U@. . . . . . . . . . . . . . . . . . . . . . . . . . . . . . . . . . . . . . . . . . "};
