/* XPM */
static char * stock_delete_outline_16_xpm[] = {
"16 16 52 1",
" 	c None",
".	c #0E0E0E",
"+	c #424242",
"@	c #4A4A4A",
"#	c #3E3E3E",
"$	c #2C2C2C",
"%	c #000000",
"&	c #858371",
"*	c #535246",
"=	c #101010",
"-	c #A5A38C",
";	c #2B2B2B",
">	c #8A8975",
",	c #58574A",
"'	c #525146",
")	c #737165",
"!	c #434238",
"~	c #292822",
"{	c #1F1F1B",
"]	c #343430",
"^	c #4B4944",
"/	c #686762",
"(	c #393931",
"_	c #171615",
":	c #1A1A16",
"<	c #1F1E19",
"[	c #2A2A23",
"}	c #A0A095",
"|	c #4D4D40",
"1	c #363630",
"2	c #2A2A26",
"3	c #2F2F2A",
"4	c #0F0F0D",
"5	c #0B0B09",
"6	c #10100D",
"7	c #24241F",
"8	c #2B2B24",
"9	c #262620",
"0	c #2C2C25",
"a	c #292922",
"b	c #7E7E75",
"c	c #444438",
"d	c #282822",
"e	c #272721",
"f	c #43433D",
"g	c #23231D",
"h	c #060606",
"i	c #42413A",
"j	c #35352C",
"k	c #2E2E29",
"l	c #0F0F0F",
"m	c #050505",
"     .+@#$%     ",
"   %%&    *%%   ",
"  =         -%  ",
" ;            % ",
" %            % ",
" %>          ,% ",
" %')        !~% ",
"  {]^/    (_:<  ",
"  [}|123456  7  ",
"  8          9  ",
"  0          a  ",
"  0          a  ",
"  8b        cd  ",
"  ef        dg  ",
"   hhi    jk%   ",
"     h%lm%%     "};
